# xmcd
#
# Track frame offsets:
#	150
#	13937
#	27394
#	44143
#	67438
#	92343
#	117870
#	145435
#	162262
#	177646
#	201150
#	214638
#
# Disc length: 3254 seconds
#
# Revision: 1
# Processed by: cddbd v1.5.2PL0 Copyright (c) Steve Scherf et al.
# Submitted via: audiograbber 1.81.03
#
DISCID=ba0cb40c
DTITLE=Bimach - Absentee Husband
DYEAR=2006
DGENRE=Country
TTITLE0=Camaradarie
TTITLE1=End The Trend
TTITLE2=Proof Can Stay
TTITLE3=It's Bugging Me
TTITLE4=Tina
TTITLE5=How It's Meant To Be
TTITLE6=I Might Lean Left
TTITLE7=The`Well
TTITLE8=Hermione
TTITLE9=Addicted To Ecstasy
TTITLE10=Garbage Can Friend
TTITLE11=When You Are
EXTD=
EXTT0=
EXTT1=
EXTT2=
EXTT3=
EXTT4=
EXTT5=
EXTT6=
EXTT7=
EXTT8=
EXTT9=
EXTT10=
EXTT11=
PLAYORDER=
